<svg width="200" height="41" viewBox="0 0 200 41" fill="none" xmlns="http://www.w3.org/2000/svg">
<path d="M52.5012 21C52.5012 24.4855 51.3732 27.8756 49.2886 30.6549C47.204 33.4343 44.277 35.4508 40.9524 36.3979C37.6279 37.3451 34.0878 37.171 30.8703 35.9021C27.6528 34.6333 24.9339 32.3391 23.1271 29.3684C21.3203 26.3977 20.5244 22.913 20.8603 19.444C21.1963 15.9751 22.6457 12.7117 24.9883 10.1501C27.3309 7.58846 30.4384 5.86868 33.8385 5.25223C37.2386 4.63579 40.7452 5.1564 43.8251 6.73492" stroke="#D7EDFF" stroke-width="6" stroke-linecap="round" stroke-linejoin="round"/>
<path d="M78.88 31V13.208H72.832V10.072H88.64V13.208H82.592V31H78.88ZM92.1248 31V10.072H97.7248C100.925 10.072 103.421 10.936 105.213 12.664C107.005 14.392 107.901 16.984 107.901 20.44C107.901 23.9173 107.015 26.552 105.245 28.344C103.474 30.1147 101.031 31 97.9167 31H92.1248ZM95.8368 27.992H97.4688C99.5808 27.992 101.213 27.384 102.365 26.168C103.517 24.9307 104.093 23.0213 104.093 20.44C104.093 17.88 103.517 16.0133 102.365 14.84C101.213 13.6667 99.5808 13.08 97.4688 13.08H95.8368V27.992ZM124.067 31.384C121.955 31.384 120.27 30.4667 119.011 28.632C117.774 26.7973 117.155 24.1627 117.155 20.728C117.155 17.2933 117.774 14.6907 119.011 12.92C120.27 11.1493 121.955 10.264 124.067 10.264C126.179 10.264 127.854 11.1493 129.091 12.92C130.35 14.6907 130.979 17.2933 130.979 20.728C130.979 24.1627 130.35 26.7973 129.091 28.632C127.854 30.4667 126.179 31.384 124.067 31.384ZM124.067 28.504C124.728 28.504 125.315 28.2587 125.827 27.768C126.339 27.256 126.734 26.4347 127.011 25.304C127.31 24.1733 127.459 22.648 127.459 20.728C127.459 18.808 127.31 17.2933 127.011 16.184C126.734 15.0747 126.339 14.296 125.827 13.848C125.315 13.3787 124.728 13.144 124.067 13.144C123.427 13.144 122.851 13.3787 122.339 13.848C121.827 14.296 121.422 15.0747 121.123 16.184C120.824 17.2933 120.675 18.808 120.675 20.728C120.675 22.648 120.824 24.1733 121.123 25.304C121.422 26.4347 121.827 27.256 122.339 27.768C122.851 28.2587 123.427 28.504 124.067 28.504Z" fill="#D7EDFF"/>
</svg>
