<svg width="13" height="14" viewBox="0 0 13 14" fill="none" xmlns="http://www.w3.org/2000/svg">
<path fill-rule="evenodd" clip-rule="evenodd" d="M0.301514 2C0.301514 0.89543 0.196665 0 1.30123 0H3.30123C4.4058 0 4.30151 0.895431 4.30151 2V12C4.30151 13.1046 4.4058 14 3.30123 14H1.30123C0.196665 14 0.301234 13.1046 0.301234 12L0.301514 2Z" fill="white"/>
<path fill-rule="evenodd" clip-rule="evenodd" d="M8.30123 2.5C8.30123 1.39543 8.19666 0 9.30123 0H11.3012C12.4058 0 12.3012 0.89543 12.3012 2V12C12.3012 13.1046 12.4058 14 11.3012 14H9.30123C8.19666 14 8.30123 13.1046 8.30123 12V2.5Z" fill="white"/>
</svg>
