<svg width="19" height="18" viewBox="0 0 19 18" fill="none" xmlns="http://www.w3.org/2000/svg">
<path fill-rule="evenodd" clip-rule="evenodd" d="M7.76022 3.12523C7.29264 2.65766 6.47521 2.18759 4.96705 2.56473C3.45371 2.94316 2.33729 4.0707 1.96646 5.46093C1.60251 6.82538 1.93182 8.5579 3.56157 10.1874L8.67916 15.3042C9.03696 15.6619 9.61467 15.6618 9.97241 15.3038C11.1217 14.1538 12.9478 12.3268 15.0872 10.1874C16.7161 8.5585 17.0456 6.82592 16.6817 5.46122C16.311 4.07084 15.1948 2.94315 13.6812 2.56474C12.1725 2.18756 11.3549 2.65771 10.8874 3.12523C10.6317 3.38097 10.4556 3.6645 10.3434 3.88896C10.2881 3.99964 10.2505 4.09145 10.2279 4.15157C10.2167 4.18148 10.2094 4.2031 10.2056 4.21476L10.2026 4.22399C10.0882 4.61367 9.73058 4.88178 9.32392 4.8818C8.91727 4.88183 8.55958 4.61377 8.44512 4.22411L8.44217 4.21486C8.43836 4.2032 8.43103 4.18157 8.4198 4.15166C8.39725 4.09153 8.35965 3.99971 8.30429 3.88902C8.19203 3.66454 8.01598 3.38099 7.76022 3.12523ZM9.32382 2.12325C9.40605 2.02508 9.49534 1.92678 9.59215 1.82996C10.4985 0.923652 11.9706 0.248947 14.1254 0.787656C16.2753 1.32513 17.9066 2.94511 18.4517 4.9893C19.0036 7.05918 18.417 9.4481 16.3824 11.4827C14.2433 13.6219 12.4172 15.4488 11.2681 16.5987C10.1952 17.6723 8.45742 17.6728 7.384 16.5995L2.26642 11.4828C0.231015 9.44768 -0.355551 7.05871 0.196566 4.98883C0.741804 2.94474 2.3734 1.32512 4.52267 0.787668C6.67714 0.248916 8.1492 0.923704 9.05548 1.82996C9.15229 1.92678 9.24158 2.02508 9.32382 2.12325Z" fill="white"/>
</svg>
