<svg width="12" height="10" viewBox="0 0 12 10" fill="none" xmlns="http://www.w3.org/2000/svg">
<path d="M1.30127 2.2H2.45627C2.96496 2.20062 3.46617 2.32251 3.91833 2.55555C4.3705 2.78859 4.7606 3.12607 5.05627 3.54L7.14627 6.46C7.44194 6.87393 7.83204 7.21141 8.28421 7.44445C8.73637 7.67749 9.23758 7.79938 9.74627 7.8H11.3013M11.3013 7.8L10.1013 6.6M11.3013 7.8L10.1013 9M10.1013 1L11.3013 2.2M11.3013 2.2L10.1013 3.4M11.3013 2.2H9.74623C9.23754 2.20062 8.73633 2.32251 8.28417 2.55555C7.832 2.78859 7.4419 3.12607 7.14623 3.54L7.08623 3.625M1.30127 7.8H2.45627C2.96496 7.79938 3.46617 7.67749 3.91833 7.44445C4.3705 7.21141 4.7606 6.87393 5.05627 6.46L5.11627 6.375" stroke="#BBBBBB" stroke-linecap="round" stroke-linejoin="round"/>
</svg>
