<svg width="11" height="8" viewBox="0 0 11 8" fill="none" xmlns="http://www.w3.org/2000/svg">
<path d="M6.98859 0.483365V7.50338C6.98835 7.59409 6.9635 7.68303 6.9167 7.76074C6.8699 7.83844 6.8029 7.902 6.72283 7.94463C6.64442 7.98489 6.55678 8.00378 6.46875 7.99937C6.38072 7.99497 6.2954 7.96744 6.2214 7.91956L3.32815 5.99909H1.97429C1.70832 5.99909 1.45324 5.89343 1.26517 5.70536C1.07709 5.51729 0.971436 5.2622 0.971436 4.99623V2.99051C0.971436 2.72454 1.07709 2.46946 1.26517 2.28138C1.45324 2.09331 1.70832 1.98765 1.97429 1.98765H3.32815L6.21137 0.0671788C6.2876 0.0231692 6.37407 0 6.46209 0C6.55011 0 6.63657 0.0231692 6.7128 0.0671788C6.79112 0.106417 6.85779 0.165487 6.90618 0.238507C6.95456 0.311527 6.98298 0.395949 6.98859 0.483365Z" fill="#8E8E8E"/>
<path d="M8.99431 2.48903H7.99145V5.49761H8.99431V2.48903Z" fill="#8E8E8E"/>
<path d="M11 0.483311H9.99716V7.50332H11V0.483311Z" fill="#8E8E8E"/>
</svg>
