<svg width="7" height="8" viewBox="0 0 7 8" fill="none" xmlns="http://www.w3.org/2000/svg">
<path d="M6.9715 0.483365V7.50338C6.97126 7.59409 6.94641 7.68303 6.89961 7.76074C6.85281 7.83844 6.78581 7.902 6.70574 7.94463C6.62733 7.98489 6.53969 8.00378 6.45166 7.99937C6.36363 7.99497 6.27831 7.96744 6.20431 7.91956L3.31106 5.99909H1.9572C1.69123 5.99909 1.43615 5.89343 1.24808 5.70536C1.06 5.51728 0.954346 5.2622 0.954346 4.99623V2.99051C0.954346 2.72454 1.06 2.46946 1.24808 2.28138C1.43615 2.09331 1.69123 1.98765 1.9572 1.98765H3.31106L6.19428 0.0671788C6.27051 0.0231692 6.35698 0 6.445 0C6.53302 0 6.61949 0.0231692 6.69571 0.0671788C6.77403 0.106417 6.8407 0.165487 6.88909 0.238507C6.93747 0.311527 6.96589 0.395949 6.9715 0.483365Z" fill="#8E8E8E"/>
</svg>
